HIERARCHY
ROOT Hips
{
	OFFSET 0.000000 0.000000 0.000000
	CHANNELS 6 Xposition Yposition Zposition Zrotation Yrotation Xrotation 
	JOINT LeftUpLeg_virtual
	{
		OFFSET 0.000000 0.000000 0.000000
		CHANNELS 3 Zrotation Yrotation Xrotation
		JOINT LeftUpLeg
		{
			OFFSET 8.479694 -4.795517 -0.379053
			CHANNELS 3 Zrotation Yrotation Xrotation
			JOINT LeftLeg
			{
				OFFSET 0.485052 -32.551468 0.112863
				CHANNELS 3 Zrotation Yrotation Xrotation
				JOINT LeftFoot
				{
					OFFSET 0.438033 -32.635670 -3.012641
					CHANNELS 3 Zrotation Yrotation Xrotation
					JOINT LeftToeBase
					{
						OFFSET 0.970169 -13.225353 11.864223
						CHANNELS 3 Zrotation Yrotation Xrotation
						End Site
						{
							OFFSET 0.000000 0.000000 0.000000
						}
					}
				}
			}
		}
	}
	JOINT RightUpLeg_virtual
	{
		OFFSET 0.000000 0.000000 0.000000
		CHANNELS 3 Zrotation Yrotation Xrotation
		JOINT RightUpLeg
		{
			OFFSET -8.479694 -4.795517 -0.379053
			CHANNELS 3 Zrotation Yrotation Xrotation
			JOINT RightLeg
			{
				OFFSET -0.484100 -32.551483 0.112903
				CHANNELS 3 Zrotation Yrotation Xrotation
				JOINT RightFoot
				{
					OFFSET -0.438985 -32.635651 -3.012681
					CHANNELS 3 Zrotation Yrotation Xrotation
					JOINT RightToeBase
					{
						OFFSET -0.970169 -13.225354 11.864223
						CHANNELS 3 Zrotation Yrotation Xrotation
						End Site
						{
							OFFSET 0.000000 0.000000 0.000000
						}
					}
				}
			}
		}
	}
	JOINT Spine_virtual
	{
		OFFSET 0.000000 0.000000 0.000000
		CHANNELS 3 Zrotation Yrotation Xrotation
		JOINT Spine
		{
			OFFSET 0.000000 7.722015 1.166203
			CHANNELS 3 Zrotation Yrotation Xrotation
			JOINT Spine1
			{
				OFFSET 0.000000 12.024086 0.248766
				CHANNELS 3 Zrotation Yrotation Xrotation
				JOINT Spine2
				{
					OFFSET -0.000000 11.503036 -0.491240
					CHANNELS 3 Zrotation Yrotation Xrotation
					JOINT Neck_virtual
					{
						OFFSET 0.000000 0.000000 0.000000
						CHANNELS 3 Zrotation Yrotation Xrotation
						JOINT Neck
						{
							OFFSET 0.000000 18.430687 -3.123054
							CHANNELS 3 Zrotation Yrotation Xrotation
							JOINT Head
							{
								OFFSET -0.000000 9.051071 1.034021
								CHANNELS 3 Zrotation Yrotation Xrotation
								End Site
								{
									OFFSET 0.000000 0.000000 0.000000
								}
							}
						}
					}
					JOINT LeftShoulder_virtual
					{
						OFFSET 0.000000 0.000000 0.000000
						CHANNELS 3 Zrotation Yrotation Xrotation
						JOINT LeftShoulder
						{
							OFFSET 6.197824 13.665230 -4.064723
							CHANNELS 3 Zrotation Yrotation Xrotation
							JOINT LeftArm
							{
								OFFSET 7.778132 -0.187073 -1.709282
								CHANNELS 3 Zrotation Yrotation Xrotation
								JOINT LeftForeArm
								{
									OFFSET 21.954697 0.000000 -2.041093
									CHANNELS 3 Zrotation Yrotation Xrotation
									JOINT LeftHand
									{
										OFFSET 22.992908 0.000000 -0.870901
										CHANNELS 3 Zrotation Yrotation Xrotation
										End Site
										{
											OFFSET 0.000000 0.000000 0.000000
										}
									}
								}
							}
						}
					}
					JOINT RightShoulder_virtual
					{
						OFFSET 0.000000 0.000000 0.000000
						CHANNELS 3 Zrotation Yrotation Xrotation
						JOINT RightShoulder
						{
							OFFSET -6.197824 13.665230 -4.064723
							CHANNELS 3 Zrotation Yrotation Xrotation
							JOINT RightArm
							{
								OFFSET -7.778132 -0.187073 -1.709282
								CHANNELS 3 Zrotation Yrotation Xrotation
								JOINT RightForeArm
								{
									OFFSET -21.954697 0.000000 -2.041093
									CHANNELS 3 Zrotation Yrotation Xrotation
									JOINT RightHand
									{
										OFFSET -22.992908 0.000000 -0.870901
										CHANNELS 3 Zrotation Yrotation Xrotation
										End Site
										{
											OFFSET 0.000000 0.000000 0.000000
										}
									}
								}
							}
						}
					}
				}
			}
		}
	}
}
MOTION
Frames: 4
Frame Time: 0.033333
17.740829 81.392639 9.543744 -179.982028 -17.672414 179.613403 -2.504130 -4.609571 13.077333 9.733172 2.120945 -28.996291 0.530708 3.588639 27.678623 -3.799919 -7.147622 -1.503274 0.000000 0.000000 0.000000 2.256746 -9.433376 12.735333 4.286215 -12.901051 -15.965671 0.717945 0.955933 23.812271 2.577544 6.805826 -12.637744 0.000000 0.000000 0.000000 4.092148 -3.160548 1.821801 1.868556 2.689999 -9.115734 -0.860195 -0.989504 10.885080 0.037685 0.162601 -0.084434 -0.952166 0.010990 8.171519 -1.817537 -3.463922 -0.144731 0.000000 0.000000 0.000000 0.841319 0.851736 4.415706 0.629146 -10.736579 4.841087 -44.556398 -12.983613 -7.271013 -0.685576 -69.938931 11.554636 0.000000 0.000000 0.000000 -3.783685 2.441435 3.723208 31.861057 14.364617 12.805111 19.963663 42.748549 2.401855 -11.379497 74.319138 -13.785427 0.000000 0.000000 0.000000 
17.607199 81.384621 9.614005 -179.985525 -19.177057 179.575358 -2.433351 -5.102814 13.148726 9.568478 1.808613 -29.243199 0.402974 3.329075 27.499843 -3.888726 -7.357365 -1.307350 0.000000 0.000000 0.000000 2.422767 -10.400702 12.740826 4.092672 -13.245919 -16.124603 0.744484 0.702443 24.009163 2.495835 6.728214 -12.877184 0.000000 0.000000 0.000000 4.266448 -3.695613 1.868116 2.027569 3.047973 -9.335099 -0.784307 -0.982734 10.913473 -0.020436 0.134574 -0.023541 -0.801027 0.209676 8.081580 -1.392811 -3.728644 0.110117 0.000000 0.000000 0.000000 0.936826 0.855233 4.292537 0.146435 -11.621109 5.072878 -43.532385 -14.781188 -7.236371 0.400144 -59.280503 9.286482 0.000000 0.000000 0.000000 -3.595988 2.401677 3.781308 32.862902 16.248057 13.888560 23.938625 46.694564 7.126624 -9.765763 70.394532 -11.672168 0.000000 0.000000 0.000000 
17.427204 81.387405 9.690761 179.956538 -20.688838 179.568474 -2.284217 -5.667258 13.305304 9.263024 1.740133 -29.434318 0.286113 3.459539 27.139250 -3.995523 -7.596559 -1.131107 0.000000 0.000000 0.000000 2.517379 -11.308290 12.709323 3.804708 -13.472005 -16.108103 0.766200 0.592049 24.136729 2.405623 6.594587 -13.214307 0.000000 0.000000 0.000000 4.443744 -4.239471 1.909276 2.130411 3.524490 -9.602748 -0.704956 -0.899824 10.930048 0.010516 0.232418 -0.068744 -0.717870 0.221283 7.914840 -0.608198 -4.014692 0.094866 0.000000 0.000000 0.000000 0.949592 1.004368 4.294155 -0.293587 -12.644149 5.078398 -42.508177 -17.264765 -7.249279 0.112960 -49.096476 8.497428 0.000000 0.000000 0.000000 -3.479794 2.381322 3.787346 33.613605 18.034734 14.928615 28.658948 50.120676 12.287831 -8.664556 65.817574 -10.067297 0.000000 0.000000 0.000000 
17.212742 81.386375 9.748849 179.934845 -22.349646 179.515007 -2.126180 -6.381583 13.485764 8.963797 1.541046 -29.603717 0.194648 3.543007 26.824217 -4.072951 -7.831342 -1.013962 0.000000 0.000000 0.000000 2.619207 -12.405436 12.679637 3.484319 -13.750049 -15.899726 0.809974 0.479602 24.186572 2.358707 6.439510 -13.663140 0.000000 0.000000 0.000000 4.665585 -4.894821 1.999075 2.267999 4.013286 -9.858369 -0.608397 -0.825604 10.884283 -0.008950 0.294666 -0.123170 -0.554179 0.273825 7.757360 0.498216 -4.535547 -0.029862 0.000000 0.000000 0.000000 1.016875 1.123886 4.215487 -0.783434 -13.715581 5.216931 -41.818376 -19.658982 -6.974158 -0.264182 -41.204605 7.923707 0.000000 0.000000 0.000000 -3.322729 2.518341 3.747776 33.967828 19.567507 15.951731 33.624591 52.653440 17.409710 -8.066685 61.370220 -8.931017 0.000000 0.000000 0.000000 
